<?xml version="1.0" standalone="no"?><!DOCTYPE svg PUBLIC "-//W3C//DTD SVG 1.1//EN" "http://www.w3.org/Graphics/SVG/1.1/DTD/svg11.dtd"><svg t="1638868416679" class="icon" viewBox="0 0 1024 1024" version="1.1" xmlns="http://www.w3.org/2000/svg" p-id="7676" xmlns:xlink="http://www.w3.org/1999/xlink" width="200" height="200"><defs><style type="text/css"></style></defs><path d="M928 256h-32V224h-96V128h-32V96h-96v32h-32v35.52a336.32 336.32 0 0 0-256 68.8V96H160v736H96v96h832v-96h-64v-139.2A335.04 335.04 0 0 0 896 352h32z" fill="#FFFFFF" p-id="7677"></path><path d="M592 496m-304 0a304 304 0 1 0 608 0 304 304 0 1 0-608 0Z" fill="#E9EAEB" p-id="7678"></path><path d="M192 128h160v768H192z" fill="#A3D4FF" p-id="7679"></path><path d="M320 352h160v544h-160z" fill="#FFFFFF" p-id="7680"></path><path d="M544 256h160v640h-160z" fill="#A3D4FF" p-id="7681"></path><path d="M672 608h160v288h-160z" fill="#FFFFFF" p-id="7682"></path><path d="M768 160h-32V128h-32v32h-32v32h32v32h32V192h32V160zM864 256h-32v32h-32v32h32v32h32v-32h32V288h-32V256z" fill="#BCC0C4" p-id="7683"></path><path d="M832 864v-256h-128V256h-160v608h-64V352h-128V128H192v736H128v32h768v-32zM224 864V160h96v704z m128 0V384h96v480z m224 0V288h96v576z m128 0v-224h96v224z" fill="#2A5082" p-id="7684"></path></svg>